<?xml version="1.0" encoding="utf-8"?>
<!-- Generator: Adobe Illustrator 26.0.0, SVG Export Plug-In . SVG Version: 6.00 Build 0)  -->
<svg version="1.1" id="Capa_1" xmlns="http://www.w3.org/2000/svg" xmlns:xlink="http://www.w3.org/1999/xlink" x="0px" y="0px"
	 viewBox="0 0 841.9 595.3" style="enable-background:new 0 0 841.9 595.3;" xml:space="preserve">
<style type="text/css">
	.st0{display:none;}
	.st1{display:inline;fill:#3354A2;}
	.st2{display:inline;fill:#3960AB;}
	.st3{display:inline;fill:#FFFFFF;}
	.st4{display:inline;fill:#EBEBEA;}
	.st5{fill:#2C0D0E;}
	.st6{fill:#F4981A;}
</style>
<g class="st0">
	<polygon class="st1" points="265.8,124.9 576,124.9 546.8,445.3 420.9,482.4 292.2,445.3 	"/>
	<polygon class="st2" points="420.9,149.6 547.6,149.6 523.5,420.3 420.9,448.1 	"/>
	<polygon class="st3" points="323.7,188.8 420.6,188.8 518.2,188.8 500,387.4 420.6,409.6 341.4,386.9 335.8,326.2 375.2,325.7 
		377.7,356.5 420.6,368.7 463.1,356.5 467.7,306.2 420.9,306.2 334.3,306.2 329.7,268.1 420.6,268.1 470.2,267.6 474.8,228.2 
		420.9,228.2 327.2,228.7 	"/>
	<polygon class="st4" points="421.1,188.8 323.7,188.8 327.2,228.7 420.9,228.2 	"/>
	<polygon class="st4" points="329.7,268.1 420.9,268.1 420.9,306.2 334.3,306.2 	"/>
	<polygon class="st4" points="335.5,326.6 375.2,325.7 377.7,356.5 420.6,368.7 420.9,409.6 341.4,386.9 	"/>
</g>
<image style="display:none;overflow:visible;" width="2439" height="2400" xlink:href="67D5833F.png"  transform="matrix(5.097063e-02 0 0 5.097063e-02 356.6415 235.2804)">
</image>
<g>
	<path class="st5" d="M217.8,4.8h460.3c47.1,0,85.2,38.2,85.2,85.2v406.3c0,52.5-42.6,95.1-95.1,95.1H225.5c-50.8,0-92-41.2-92-92
		V89C133.5,42.5,171.2,4.8,217.8,4.8z"/>
	<g>
		<path class="st6" d="M524.6,408.8l-97.5-255c-0.2-0.6-0.9-1.1-1.6-1.1h-66.3c-3.2,0-5.7,2.4-5.7,5.3v0c0,7.2-1.3,14.4-3.9,21.2
			l-85,229.3c-0.7,1.9,0.8,3.8,2.9,3.8h46.5c4.3,0,8.2-2.6,9.5-6.4l18.7-53.7c0.4-1.1,1.5-1.8,2.7-1.8l93.8,0c1.2,0,2.3,0.7,2.7,1.8
			l21.2,57c0.7,1.9,2.7,3.2,4.9,3.1l54.4,0C523.9,412.3,525.3,410.5,524.6,408.8z M359,297.5l28.9-91.5c0.8-2.5,4.6-2.5,5.4,0
			l30.5,91.5c0.6,1.7-0.8,3.4-2.7,3.4h-59.4C359.8,300.9,358.4,299.2,359,297.5z"/>
		<ellipse class="st6" cx="582.6" cy="163.3" rx="33.4" ry="31.1"/>
		<path class="st6" d="M609.7,412.3h-54.3c-1.6,0-3-1.3-3-3V217.8c0-1.6,1.3-3,3-3h54.3c1.6,0,3,1.3,3,3v191.6
			C612.7,411,611.4,412.3,609.7,412.3z"/>
	</g>
</g>
</svg>
