<?xml version="1.0" encoding="utf-8"?>
<!-- Generator: Adobe Illustrator 26.0.0, SVG Export Plug-In . SVG Version: 6.00 Build 0)  -->
<svg version="1.1" id="Capa_1" xmlns="http://www.w3.org/2000/svg" xmlns:xlink="http://www.w3.org/1999/xlink" x="0px" y="0px"
	 viewBox="0 0 841.9 595.3" style="enable-background:new 0 0 841.9 595.3;" xml:space="preserve">
<style type="text/css">
	.st0{display:none;}
	.st1{display:inline;fill:#E44E27;}
	.st2{display:inline;fill:#EC6529;}
	.st3{display:inline;fill:#FFFFFF;}
	.st4{display:inline;fill:#EBEBEA;}
	.st5{fill:#3354A2;}
	.st6{fill:#3960AB;}
	.st7{fill:#FFFFFF;}
	.st8{fill:#EBEBEA;}
</style>
<g class="st0">
	<polygon class="st1" points="266.6,125.8 575.3,125.8 546.1,444.6 420.9,481.5 292.8,444.6 	"/>
	<polygon class="st2" points="422.2,154.3 548.2,154.3 524.2,423.6 422.2,451.3 	"/>
	<polygon class="st3" points="518.2,189 514.8,231.7 420.9,231.7 366.8,231.7 370.1,269.3 420.9,269.3 511.3,269.3 500.6,389.8 
		420.9,410.7 340,388.9 335,327.9 374.8,327 377.7,359.7 420.9,370.5 463.8,359.7 468,308.6 420.9,309.5 333.7,309.7 321.6,189 	"/>
	<polygon class="st4" points="422.2,189 422.2,231.7 366.8,231.7 370.1,269.3 422.2,269.3 422.2,309.4 333.7,309.7 321.6,189 	"/>
	<polygon class="st4" points="374.8,327 335,327.9 340,388.9 420.9,410.7 420.9,370.5 377.7,359.7 	"/>
</g>
<g>
	<polygon class="st5" points="265.8,124.9 576,124.9 546.8,445.3 420.9,482.4 292.2,445.3 	"/>
	<polygon class="st6" points="420.9,149.6 547.6,149.6 523.5,420.3 420.9,448.1 	"/>
	<polygon class="st7" points="323.7,188.8 420.6,188.8 518.2,188.8 500,387.4 420.6,409.6 341.4,386.9 335.8,326.2 375.2,325.7 
		377.7,356.5 420.6,368.7 463.1,356.5 467.7,306.2 420.9,306.2 334.3,306.2 329.7,268.1 420.6,268.1 470.2,267.6 474.8,228.2 
		420.9,228.2 327.2,228.7 	"/>
	<polygon class="st8" points="421.1,188.8 323.7,188.8 327.2,228.7 420.9,228.2 	"/>
	<polygon class="st8" points="329.7,268.1 420.9,268.1 420.9,306.2 334.3,306.2 	"/>
	<polygon class="st8" points="335.5,326.6 375.2,325.7 377.7,356.5 420.6,368.7 420.9,409.6 341.4,386.9 	"/>
</g>
</svg>
