<?xml version="1.0" encoding="utf-8"?>
<!-- Generator: Adobe Illustrator 26.0.0, SVG Export Plug-In . SVG Version: 6.00 Build 0)  -->
<svg version="1.1" id="Capa_1" xmlns="http://www.w3.org/2000/svg" xmlns:xlink="http://www.w3.org/1999/xlink" x="0px" y="0px"
	 viewBox="0 0 841.9 595.3" style="enable-background:new 0 0 841.9 595.3;" xml:space="preserve">
<style type="text/css">
	.st0{fill:#E44E27;}
	.st1{fill:#EC6529;}
	.st2{fill:#FFFFFF;}
	.st3{fill:#EBEBEA;}
</style>
<g>
	<polygon class="st0" points="266.6,125.8 575.3,125.8 546.1,444.6 420.9,481.5 292.8,444.6 	"/>
	<polygon class="st1" points="422.2,154.3 548.2,154.3 524.2,423.6 422.2,451.3 	"/>
	<polygon class="st2" points="518.2,189 514.8,231.7 420.9,231.7 366.8,231.7 370.1,269.3 420.9,269.3 511.3,269.3 500.6,389.8 
		420.9,410.7 340,388.9 335,327.9 374.8,327 377.7,359.7 420.9,370.5 463.8,359.7 468,308.6 420.9,309.5 333.7,309.7 321.6,189 	"/>
	<polygon class="st3" points="422.2,189 422.2,231.7 366.8,231.7 370.1,269.3 422.2,269.3 422.2,309.4 333.7,309.7 321.6,189 	"/>
	<polygon class="st3" points="374.8,327 335,327.9 340,388.9 420.9,410.7 420.9,370.5 377.7,359.7 	"/>
</g>
</svg>
