<?xml version="1.0" encoding="utf-8"?>
<!-- Generator: Adobe Illustrator 26.0.0, SVG Export Plug-In . SVG Version: 6.00 Build 0)  -->
<svg version="1.1" id="Capa_1" xmlns="http://www.w3.org/2000/svg" xmlns:xlink="http://www.w3.org/1999/xlink" x="0px" y="0px"
	 viewBox="0 0 841.9 595.3" style="enable-background:new 0 0 841.9 595.3;" xml:space="preserve">
<style type="text/css">
	.st0{fill:#E4A123;}
	.st1{fill:#F0BD23;}
	.st2{fill:#FFFFFF;}
	.st3{fill:#EAECED;}
</style>
<g>
	<polygon class="st0" points="266.4,109.9 575.5,109.9 546.4,429.2 420.9,466.2 292.6,429.2 	"/>
	<polygon class="st1" points="420.9,137.3 547.2,137.3 523.2,407.1 420.9,434.8 	"/>
	<polygon class="st2" points="386.2,194.2 419.8,193.2 465.4,195.2 469.5,234.6 508.2,236 500.9,151.9 347.3,151.9 333.7,292.9 
		420.9,294.9 465.4,292.9 460.6,343.4 419.1,353.7 378.6,343 375.1,312.4 333.7,311.8 340.5,372.6 419.1,395.9 499,371.6 508.2,254 
		420.9,252.1 377.8,252.1 	"/>
	<polygon class="st3" points="420.5,151.9 420.5,193.2 386.2,194.2 377.8,252.1 420.9,252.1 420.5,294.9 333.2,292.9 346.8,151.9 	
		"/>
	<polygon class="st3" points="375.1,312.4 333.7,311.8 340.5,372.6 419.9,396.2 420,353.7 378.4,342.4 	"/>
</g>
</svg>
