<?xml version="1.0" encoding="utf-8"?>
<!-- Generator: Adobe Illustrator 26.0.0, SVG Export Plug-In . SVG Version: 6.00 Build 0)  -->
<svg version="1.1" id="Capa_1" xmlns="http://www.w3.org/2000/svg" xmlns:xlink="http://www.w3.org/1999/xlink" x="0px" y="0px"
	 viewBox="0 0 792 612" style="enable-background:new 0 0 792 612;" xml:space="preserve">
<style type="text/css">
	.st0{display:none;}
	.st1{fill:#50475E;}
	.st2{fill:#FF2C5C;}
	.st3{fill:#685C79;}
	.st4{fill:#FFD659;}
	.st5{fill:#4FB1F5;}
	.st6{fill:#ADE7FF;}
</style>
<g id="Capa_1_00000153673635563211715350000001466166755847008935_" class="st0">
	
		<image style="display:inline;overflow:visible;enable-background:new    ;" width="200" height="200" xlink:href="7AB0DAE4.png"  transform="matrix(1.625 0 0 1.625 226.7647 119.7059)">
	</image>
</g>
<g id="Logo">
	<g>
		<g>
			<rect x="340" y="317.5" class="st1" width="25.4" height="7.5"/>
			<circle class="st1" cx="325.4" cy="321.2" r="14.6"/>
			<circle class="st2" cx="325.4" cy="321.2" r="5.9"/>
		</g>
		<g>
			<rect x="379.4" y="232.2" class="st1" width="7.5" height="25.4"/>
			<circle class="st1" cx="383.1" cy="217.6" r="14.6"/>
			<circle class="st2" cx="383.1" cy="217.6" r="5.9"/>
		</g>
		<g>
			<rect x="446.7" y="279" class="st1" width="25.4" height="7.5"/>
			
				<ellipse transform="matrix(0.1602 -0.9871 0.9871 0.1602 129.6586 717.8754)" class="st1" cx="486.7" cy="282.7" rx="14.6" ry="14.6"/>
			
				<ellipse transform="matrix(0.1602 -0.9871 0.9871 0.1602 129.6587 717.8754)" class="st2" cx="486.7" cy="282.7" rx="5.9" ry="5.9"/>
		</g>
		<g>
			<rect x="414.4" y="353" class="st1" width="7.5" height="25.4"/>
			<circle class="st1" cx="418.2" cy="393" r="14.6"/>
			<circle class="st2" cx="418.2" cy="393" r="5.9"/>
		</g>
		<g>
			<g>
				<rect x="280.9" y="226.2" class="st1" width="8.2" height="70.7"/>
				<rect x="289.1" y="286.4" class="st1" width="60.7" height="10.5"/>
			</g>
			<g>
				<rect x="317.7" y="410.4" class="st1" width="70.7" height="8.2"/>
				<rect x="377.9" y="349.7" class="st1" width="10.5" height="60.7"/>
			</g>
			<g>
				<rect x="413.7" y="180.9" class="st1" width="8.2" height="74.7"/>
				<rect x="414.4" y="180.1" class="st1" width="66.7" height="8.2"/>
			</g>
			<g>
				<rect x="443.4" y="300.7" class="st1" width="74.6" height="8.2"/>
				<rect x="510.7" y="301.4" class="st1" width="8.2" height="78.6"/>
			</g>
		</g>
		<g>
			<path class="st2" d="M249.5,148.8h70.7c1.9,0,3.4,1.5,3.4,3.4v70.7c0,1.9-1.5,3.4-3.4,3.4h-70.7c-1.9,0-3.4-1.5-3.4-3.4v-70.7
				C246.2,150.3,247.7,148.8,249.5,148.8z"/>
			<path class="st3" d="M266.8,166.1h36.2c1.9,0,3.4,1.5,3.4,3.4v36.2c0,1.9-1.5,3.4-3.4,3.4h-36.2c-1.9,0-3.4-1.5-3.4-3.4v-36.2
				C263.4,167.6,264.9,166.1,266.8,166.1z"/>
		</g>
		<g>
			<path class="st4" d="M479.4,148.8H550c1.9,0,3.4,1.5,3.4,3.4v70.7c0,1.9-1.5,3.4-3.4,3.4h-70.7c-1.9,0-3.4-1.5-3.4-3.4v-70.7
				C476,150.3,477.5,148.8,479.4,148.8z"/>
			<path class="st2" d="M496.6,166.1h36.2c1.9,0,3.4,1.5,3.4,3.4v36.2c0,1.9-1.5,3.4-3.4,3.4h-36.2c-1.9,0-3.4-1.5-3.4-3.4v-36.2
				C493.3,167.6,494.8,166.1,496.6,166.1z"/>
		</g>
		<g>
			<path class="st3" d="M479.4,378.4H550c1.9,0,3.4,1.5,3.4,3.4v70.7c0,1.9-1.5,3.4-3.4,3.4h-70.7c-1.9,0-3.4-1.5-3.4-3.4v-70.7
				C476,379.9,477.5,378.4,479.4,378.4z"/>
			<path class="st2" d="M496.6,395.7h36.2c1.9,0,3.4,1.5,3.4,3.4v36.2c0,1.9-1.5,3.4-3.4,3.4h-36.2c-1.9,0-3.4-1.5-3.4-3.4V399
				C493.3,397.2,494.8,395.7,496.6,395.7z"/>
		</g>
		<g>
			<path class="st5" d="M249.5,378.4h70.7c1.9,0,3.4,1.5,3.4,3.4v70.7c0,1.9-1.5,3.4-3.4,3.4h-70.7c-1.9,0-3.4-1.5-3.4-3.4v-70.7
				C246.2,379.9,247.7,378.4,249.5,378.4z"/>
			<path class="st2" d="M266.8,395.7h36.2c1.9,0,3.4,1.5,3.4,3.4v36.2c0,1.9-1.5,3.4-3.4,3.4h-36.2c-1.9,0-3.4-1.5-3.4-3.4V399
				C263.4,397.2,264.9,395.7,266.8,395.7z"/>
		</g>
		<g>
			<rect x="349.7" y="254.9" class="st6" width="98.1" height="98.1"/>
			<rect x="371.6" y="276.8" class="st2" width="54.4" height="54.4"/>
		</g>
	</g>
</g>
</svg>
