<?xml version="1.0" encoding="utf-8"?>
<!-- Generator: Adobe Illustrator 26.0.0, SVG Export Plug-In . SVG Version: 6.00 Build 0)  -->
<svg version="1.1" id="Capa_1" xmlns="http://www.w3.org/2000/svg" xmlns:xlink="http://www.w3.org/1999/xlink" x="0px" y="0px"
	 viewBox="0 0 792 612" style="enable-background:new 0 0 792 612;" xml:space="preserve">
<style type="text/css">
	.st0{opacity:0.85;}
	.st1{fill:#010202;stroke:#010202;stroke-miterlimit:10;}
	.st2{fill:#EA4F51;stroke:#EA4F51;stroke-miterlimit:10;}
	.st3{fill:#821715;stroke:#821715;stroke-miterlimit:10;}
	.st4{fill:#821716;stroke:#821716;stroke-miterlimit:10;}
</style>
<g class="st0">
	<path class="st1" d="M320.1,79.1l-7.46,343.57c-0.77,35.53,30.59,63.5,66.39,59.19l0,0c-2.86,1.99-5.91,3.7-9.1,5.11v0
		c-6.18,2.73-12.67,4.7-19.34,5.88c-36.47,6.43-65.69,1.53-90.77,66.14h0l0.93-313.71c0.08-28.53-23.31-51.72-52.26-51.81h0l0,0
		c36.25-28.63,92.32-27.39,107.71-99.77c0.88-4.13,1.9-8.24,3.16-12.27L320.1,79.1z"/>
	<path class="st1" d="M560.94,173.22c-0.51-4.61-1.15-9.24-1.86-13.71c-1.65-10.37-5.68-20.23-11.8-28.82l0,0
		c-17.33-22.12-62.48-27.38-101.98-28.66c-37.92-1.23-75.65-5.87-112.79-13.52h0l-5.17,302.4c-0.16,9.62,0.84,19.23,2.98,28.62
		c5.34,23.34,22.27,42.46,45.02,50.82l22.78,8.37l2.29-214.13c0.05-3.2,2.73-5.75,5.97-5.69l48.82-4.65
		c41.9-7.79,72.3-7.07,95.74-40.49C558.92,201.79,562.51,187.46,560.94,173.22z M424.21,221.86l-22.13,3.91l0.28-94.65
		c19.92,0.06,39.16,2.64,53.98,7.28c9.61,3,17.88,6.36,24.77,9.97C529.72,173.79,502.27,208.08,424.21,221.86z"/>
</g>
<g>
	<path class="st2" d="M319.17,96.19l-5.81,314.12c-0.6,32.49,27.73,57.97,59.97,53.94h0c-2.57,1.83-5.31,3.4-8.19,4.69h0
		c-5.56,2.51-11.41,4.34-17.41,5.43c-32.84,5.98-59.18,1.58-81.6,60.71h0V248.28c0-26.08-21.14-47.22-47.22-47.22h0l0,0
		c32.58-26.28,83.11-25.29,96.78-91.51c0.78-3.78,1.69-7.53,2.82-11.22L319.17,96.19z"/>
	<path class="st2" d="M536.4,181.59c-0.47-4.21-1.06-8.44-1.72-12.53c-1.52-9.47-5.17-18.48-10.71-26.31l0,0
		c-15.67-20.18-56.36-24.86-91.95-25.92c-34.17-1.02-68.17-5.17-101.66-12.05h0l-3.85,276.48c-0.12,8.8,0.81,17.58,2.76,26.16
		c4.87,21.33,20.18,38.76,40.7,46.34l20.55,7.59l1.49-195.76c0.04-2.92,2.44-5.26,5.37-5.22l43.97-4.39
		c37.72-7.24,65.12-6.66,86.15-37.27C534.66,207.71,537.85,194.6,536.4,181.59z M413.35,226.43l-19.92,3.63v-86.54
		c17.95,0,35.29,2.31,48.65,6.51c8.66,2.72,16.12,5.77,22.34,9.05C508.27,182.19,483.63,213.62,413.35,226.43z"/>
</g>
<path class="st3" d="M318.77,105.97l-23.5,307.85c-2.43,31.84,8.69,57.69,23.55,54.73l0,0c-1.28,1.71-2.63,3.17-4.02,4.35l0,0
	c-2.68,2.29-5.45,3.9-8.24,4.79c-15.26,4.85-26.88-0.27-40.95,57.03h0l19.06-281.25c1.73-25.57-6.43-46.95-18.23-47.75h0l0,0
	c16.49-24.77,39.28-22.25,49.87-86.76c0.6-3.68,1.26-7.34,2.02-10.92L318.77,105.97z"/>
<path class="st4" d="M492.22,187.05c-0.34-3.72-0.78-7.46-1.26-11.07c-1.12-8.37-3.8-16.33-7.86-23.25l0,0
	c-11.51-17.83-41.4-21.97-67.53-22.91c-25.1-0.9-50.07-4.56-74.66-10.65h0l-2.83,244.3c-0.09,7.77,0.59,15.53,2.03,23.11
	c3.58,18.85,14.82,34.25,29.89,40.95l15.09,6.71l1.1-172.98c0.03-2.58,1.79-4.65,3.94-4.61l32.3-3.88
	c27.71-6.4,47.83-5.89,63.27-32.94C490.94,210.13,493.28,198.55,492.22,187.05z M401.84,226.67l-14.63,3.21v-76.47
	c13.18,0,25.92,2.04,35.73,5.75c6.36,2.4,11.84,5.1,16.41,7.99C471.56,187.58,453.46,215.35,401.84,226.67z"/>
</svg>
